<?xml version="1.0" standalone="no"?>
<!DOCTYPE svg PUBLIC "-//W3C//DTD SVG 20010904//EN"
 "http://www.w3.org/TR/2001/REC-SVG-20010904/DTD/svg10.dtd">
<svg version="1.0" xmlns="http://www.w3.org/2000/svg"
 width="1024.000000pt" height="1024.000000pt" viewBox="0 0 1024.000000 1024.000000"
 preserveAspectRatio="xMidYMid meet">

<g transform="translate(0.000000,1024.000000) scale(0.100000,-0.100000)"
fill="#000000" stroke="none">
<path d="M4965 7779 c-131 -7 -413 -54 -569 -93 -288 -74 -692 -279 -945 -482
-461 -370 -785 -860 -934 -1414 -180 -668 -101 -1313 235 -1925 151 -274 341
-526 518 -685 439 -396 884 -616 1436 -712 112 -19 165 -22 409 -22 315 -1
406 9 655 71 482 118 925 373 1267 727 70 73 147 159 171 192 85 116 222 317
222 326 0 5 16 33 35 63 140 219 265 581 315 910 81 535 -12 1094 -262 1574
-228 438 -510 758 -903 1023 -186 126 -440 249 -675 326 -267 89 -672 139
-975 121z m540 -328 c226 -35 395 -86 616 -184 66 -30 288 -162 379 -225 238
-168 447 -387 624 -657 119 -181 164 -273 250 -510 135 -369 166 -828 85
-1230 -110 -541 -449 -1074 -909 -1428 -430 -331 -934 -489 -1510 -474 -480
13 -885 150 -1305 443 -614 428 -1004 1167 -1005 1906 0 250 43 509 128 778
82 257 207 489 388 720 58 74 263 278 349 348 361 292 809 480 1265 531 142
16 485 6 645 -18z"/>
<path d="M5035 7229 c-129 -19 -274 -124 -338 -246 -101 -193 -64 -438 87
-581 108 -102 208 -137 371 -130 176 9 266 60 362 206 140 212 120 449 -51
617 -81 80 -164 123 -258 135 -83 11 -91 11 -173 -1z m320 -260 c22 -25 17
-22 -20 10 -67 59 -75 68 -40 44 17 -12 44 -36 60 -54z"/>
<path d="M4164 7020 c-27 -11 -72 -65 -80 -96 -18 -72 27 -163 94 -191 123
-51 253 103 185 219 -39 67 -128 97 -199 68z"/>
<path d="M5955 7016 c-42 -18 -83 -69 -91 -112 -10 -52 19 -119 64 -149 52
-36 129 -35 172 1 41 35 60 74 60 126 0 107 -107 177 -205 134z"/>
<path d="M3537 6413 c20 -274 47 -380 140 -553 82 -153 197 -288 316 -369 94
-64 246 -129 357 -151 119 -25 338 -26 361 -3 10 10 -12 37 -111 130 -69 65
-181 175 -250 245 -69 70 -152 149 -186 175 -94 75 -292 253 -308 278 -14 21
-13 26 21 69 20 25 42 46 50 46 8 0 96 -81 196 -179 118 -117 185 -177 192
-170 5 5 12 54 15 109 6 112 20 141 59 121 47 -26 56 -56 56 -196 0 -104 3
-136 16 -155 34 -51 368 -379 375 -368 4 6 7 77 7 157 -1 200 -26 317 -101
471 -46 96 -201 255 -308 318 -112 65 -290 128 -454 161 -67 14 -277 30 -380
31 l-75 0 12 -167z m605 -651 c7 -6 45 -16 83 -23 75 -13 101 -25 153 -73 37
-35 41 -51 10 -41 -49 14 -78 17 -202 17 l-128 -1 -44 41 c-45 41 -60 70 -48
89 9 14 157 7 176 -9z"/>
<path d="M6465 6569 c-253 -25 -452 -78 -599 -161 -182 -102 -277 -195 -355
-348 -56 -108 -85 -199 -102 -318 -12 -84 -9 -296 5 -309 4 -4 100 86 214 200
l207 207 0 156 c0 142 2 157 19 170 30 21 72 18 90 -8 12 -17 16 -48 16 -120
0 -54 4 -98 8 -98 5 0 82 74 171 165 89 91 166 165 171 165 19 0 90 -73 90
-92 0 -35 -17 -53 -172 -184 -84 -71 -183 -159 -221 -195 l-69 -66 43 3 c24 1
98 4 164 6 114 3 120 2 120 -17 0 -13 -15 -28 -44 -44 -41 -23 -58 -25 -210
-29 l-164 -5 -141 -134 c-78 -74 -147 -145 -154 -159 -11 -22 -10 -24 15 -31
40 -11 205 -8 290 6 103 16 264 77 348 132 146 95 272 244 373 441 85 165 122
317 137 561 l7 117 -84 -1 c-45 -1 -123 -6 -173 -10z"/>
<path d="M6899 6184 c-16 -20 -5 -85 45 -253 147 -499 123 -967 -71 -1356
-163 -327 -390 -568 -708 -752 -246 -143 -551 -243 -834 -275 -97 -10 -114
-10 -121 2 -6 9 -10 521 -10 1239 0 673 -3 1227 -6 1232 -9 15 -130 11 -143
-5 -9 -11 -12 -306 -9 -1243 l3 -1228 -55 -3 c-137 -9 -527 91 -742 189 -115
52 -328 188 -439 280 -137 113 -278 280 -376 446 -86 148 -133 267 -178 458
-38 157 -48 256 -48 445 0 152 4 198 31 348 17 96 47 222 66 280 46 144 51
175 32 191 -58 48 -139 -81 -252 -403 -88 -253 -117 -425 -118 -706 -1 -252
17 -367 90 -583 96 -279 261 -566 453 -786 233 -267 635 -521 988 -625 137
-41 323 -76 400 -76 61 0 59 -5 42 111 -14 92 -9 118 36 168 19 21 41 53 49
72 14 32 15 20 16 -156 0 -104 4 -196 9 -203 5 -9 32 -14 77 -15 l69 -2 6 155
c4 85 7 191 8 235 l1 80 26 -50 c14 -28 33 -61 41 -74 26 -41 43 -122 43 -211
0 -47 4 -92 10 -100 26 -42 358 31 600 132 503 211 898 593 1149 1110 72 151
122 294 158 456 35 159 44 516 18 675 -26 160 -62 290 -121 442 -103 261 -197
405 -235 359z"/>
<path d="M3490 5162 c0 -225 32 -384 110 -547 147 -308 402 -524 723 -613 78
-21 339 -24 375 -4 l23 13 -20 28 c-30 42 -459 450 -699 666 -117 104 -212
195 -212 200 0 6 14 32 30 59 l30 47 30 -18 c17 -10 115 -100 217 -200 103
-101 191 -183 195 -183 13 0 28 74 28 143 0 37 7 84 15 104 14 34 16 35 37 21
38 -25 48 -62 62 -225 7 -87 16 -165 20 -174 4 -8 65 -69 136 -135 72 -65 151
-143 176 -171 25 -29 49 -53 53 -53 26 0 29 241 6 386 -29 182 -97 315 -222
435 -199 191 -501 311 -818 324 -66 3 -159 7 -207 10 l-88 4 0 -117z m675
-722 c109 -18 139 -28 164 -54 49 -53 5 -76 -143 -76 -92 0 -108 3 -157 28
-52 26 -99 78 -99 110 0 13 13 14 83 9 45 -3 114 -11 152 -17z"/>
<path d="M6645 5273 c-307 -13 -479 -44 -666 -123 -154 -65 -243 -123 -344
-224 -132 -133 -200 -288 -226 -516 -12 -107 -6 -267 11 -284 5 -5 44 26 98
80 50 49 142 138 206 197 l116 108 1 132 c0 124 9 220 21 233 3 2 23 8 43 11
58 9 65 -8 65 -150 l0 -118 28 21 c15 12 104 98 198 191 95 93 179 169 187
169 17 0 87 -74 87 -93 0 -23 -30 -56 -133 -144 -56 -48 -104 -90 -107 -93 -3
-3 -34 -30 -70 -60 -89 -74 -189 -171 -202 -195 -10 -18 -9 -18 5 -7 10 9 68
17 163 23 128 9 149 8 163 -5 11 -12 13 -22 5 -42 -22 -64 -95 -81 -288 -69
-110 7 -115 8 -105 26 14 27 -81 -48 -226 -176 -124 -111 -150 -139 -141 -154
19 -31 224 -41 356 -17 188 34 343 118 491 265 251 252 365 518 386 904 l6
117 -29 -2 c-16 -1 -60 -3 -99 -5z"/>
</g>
</svg>
